# xmcd
#
# Track frame offsets: 
#        150
#        18424
#        35374
#        52081
#        71066
#        93002
#        114197
#        129779
#        146805
#        164728
#        179379
#        199542
#
# Disc length: 2865 seconds
#
# Revision: 0
# Processed by: cddbd v1.5.2PL0 Copyright (c) Steve Scherf et al.
# Submitted via: ExactAudioCopy v0.99pb4
#
DISCID=a10b2f0c
DTITLE=Deanna Bogart - New Address
DYEAR=1995
DGENRE=R&B
TTITLE0=Checks and Love Letters
TTITLE1=Alright
TTITLE2=Boogie Woogie Baby
TTITLE3=Missing Persons Bureau
TTITLE4=You Give Me Reasons
TTITLE5=Said It Wouldn't Rain
TTITLE6=If I Get Old
TTITLE7=Time To Change
TTITLE8=Another Lonely Night
TTITLE9=Slipped, Tripped, Fell In Love
TTITLE10=Tighter, Tighter
TTITLE11=Can't Get Enough Of You
EXTD=
EXTT0=
EXTT1=
EXTT2=
EXTT3=
EXTT4=
EXTT5=
EXTT6=
EXTT7=
EXTT8=
EXTT9=
EXTT10=
EXTT11=
PLAYORDER=
